# xmcd
#
# Track frame offsets: 
#        150
#        34072
#        71570
#        82742
#        116207
#        148967
#        171687
#        209792
#        231312
#
# Disc length: 3562 seconds
#
# Revision: 0
# Processed by: cddbd v1.5.2PL0 Copyright (c) Steve Scherf et al.
# Submitted via: ExactAudioCopy v1.0b1
#
DISCID=8e0de809
DTITLE=Christian Pollack, Slovak State Philharmonic - Suppé: Overtures
DTITLE=vol. 5
DYEAR=1996
DGENRE=Classical
TTITLE0=Vienna Juberouverture, orchestra 
TTITLE1=Sweetheart. Overture
TTITLE2=Cannebas. Overture 
TTITLE3=Under the Earth or Freedom and Work. Overture
TTITLE4=Free spirits. Overture  
TTITLE5=Gervinus, the Fool from Untersberg. Overture  
TTITLE6=Der Tannenhäuser. Overture  
TTITLE7=Victory of the Austrian National Anthem. Overture 
TTITLE8=Love for the People   Entr'acte 
EXTD=
EXTT0=
EXTT1=
EXTT2=
EXTT3=
EXTT4=
EXTT5=
EXTT6=
EXTT7=
EXTT8=
PLAYORDER=
